<svg xmlns="http://www.w3.org/2000/svg" version="1.0" preserveAspectRatio="xMidYMid meet" style="" viewBox="0.86 0.79 211.54 211.16"><rect id="backgroundrect" width="100%" height="100%" x="0" y="0" fill="none" stroke="none"/>
<metadata>
Created by potrace 1.10, written by Peter Selinger 2001-2011
</metadata>

<g class="currentLayer" style=""><title>Layer 1</title><path fill="#ffffff" fill-opacity="1" stroke="#000000" stroke-opacity="1" stroke-width="1" stroke-dasharray="none" stroke-linejoin="miter" stroke-linecap="butt" stroke-dashoffset="" fill-rule="nonzero" opacity="1" marker-start="" marker-mid="" marker-end="" d="M53,106 C53,77.8232044198895 77.1657458563536,55 107,55 C136.8342541436464,55 161,77.8232044198895 161,106 C161,134.1767955801105 136.8342541436464,157 107,157 C77.1657458563536,157 53,134.1767955801105 53,106 Z" id="svg_3" class=""/><g transform="translate(0,284) scale(0.10000000149011612,-0.10000000149011612) " fill="#0b4a81" stroke="none" id="svg_1" class="" fill-opacity="1">
<path d="M937.4150317418155,2829.023712781109 c-208.01108511700087,-38.6306300931573 -313.9976856289966,-77.2612601863146 -448.70962646667334,-165.41833911685308 c-554.696226978669,-361.54307651288246 -644.8343638627028,-1143.0704391667573 -186.21944762855318,-1614.5622320986258 c96.08131074451944,-99.05289767476232 179.28574479131981,-160.46569423311496 298.14922200103456,-219.89743283797236 c343.7135549314252,-172.35204195408645 767.659956979408,-137.68352776791963 1084.6292295386475,89.14760790728609 c143.62670162840539,102.0244846050052 272.3954686055964,261.4996498613726 347.6756708384157,430.8801048852161 c153.53199139588162,341.73249697793005 110.93924539573382,741.9062035839697 -112.92030334922903,1052.9323022827234 c-141.6456436749101,197.11526637277703 -383.33471400133016,356.59043162914435 -616.1090235370217,408.0979384200208 c-72.3086153025765,15.848463627961971 -315.9787435824918,27.734811348933455 -366.49572139662064,18.820050558204844 zm351.6377867454063,-820.157992747032 c142.63617265165774,-142.63617265165774 193.15315046578652,-198.10579534952464 193.15315046578652,-215.93531693098186 c0,-16.838992604709592 -50.51697781412878,-74.28967325607174 -196.1247373960294,-218.90690386122475 c-107.96765846549093,-106.97712948874332 -202.06791125651512,-195.13420841928178 -209.0016140937485,-195.13420841928178 c-16.838992604709592,0 -90.13813688403371,73.29914427932412 -90.13813688403371,90.13813688403371 c0,6.933702837233364 52.49803576762403,65.37491246534314 116.88241925621953,129.75929595393865 l116.88241925621953,116.88241925621953 l-273.38599758234403,0 c-199.09632432627225,0 -276.3575845125868,2.9715869302428697 -285.2723453033155,11.886347720971479 c-15.848463627961971,15.848463627961971 -15.848463627961971,108.95818744223857 0,124.80665107020053 c8.914760790728609,8.914760790728609 86.17602097704322,11.886347720971479 287.25340325681077,11.886347720971479 l275.36705553583926,0 l-113.91083232597667,109.94871641898618 c-62.403325535100265,60.42226758160502 -115.89189027947192,118.86347720971479 -119.8540061864624,130.7498249306863 c-4.952644883738116,15.848463627961971 2.9715869302428697,28.72534032568107 33.677985209419184,58.44120962810977 c22.782166465195335,20.801108511700086 47.545390883885915,37.64010111640969 56.460151674614515,37.64010111640969 c7.924231813980986,0 102.0244846050052,-86.17602097704322 208.01108511700087,-192.16262148903888 z" id="svg_2" fill="#0b4a81"/>
</g></g></svg>