<svg xmlns="http://www.w3.org/2000/svg" version="1.0" preserveAspectRatio="xMidYMid meet" viewBox="23.25 17.25 89.51 89.52">
<metadata>
Created by potrace 1.10, written by Peter Selinger 2001-2011
</metadata>
<g transform="translate(0.000000,119.000000) scale(0.100000,-0.100000)" fill="#000000" stroke="none">
<path d="M591 1009 c-227 -44 -391 -278 -353 -505 32 -196 180 -344 376 -376 289 -48 556 219 508 508 -42 255 -281 422 -531 373z m191 -226 c10 -9 18 -30 18 -50 0 -33 0 -33 49 -33 59 0 81 -22 81 -82 l0 -38 -255 0 -255 0 0 38 c0 60 22 82 81 82 48 0 49 0 49 32 0 56 21 68 123 68 70 0 95 -4 109 -17z m-170 -260 c3 -27 5 -28 63 -28 58 0 60 1 63 28 l3 28 92 -3 92 -3 3 -69 c2 -49 -1 -75 -13 -92 l-15 -24 -225 0 c-220 0 -224 0 -239 22 -16 23 -23 148 -9 161 3 4 46 7 94 7 l88 0 3 -27z"/>
<path d="M613 718 c2 -9 24 -13 62 -13 38 0 60 4 63 13 3 9 -14 12 -63 12 -49 0 -66 -3 -62 -12z"/>
</g>
</svg>