<svg xmlns="http://www.w3.org/2000/svg" version="1.0" preserveAspectRatio="xMidYMid meet" viewBox="28.25 14.25 89.51 89.52">
<metadata>
Created by potrace 1.10, written by Peter Selinger 2001-2011
</metadata>
<g transform="translate(0.000000,115.000000) scale(0.100000,-0.100000)" fill="#000000" stroke="none">
<path d="M641 999 c-227 -44 -391 -278 -353 -505 32 -196 180 -344 376 -376 289 -48 556 219 508 508 -42 255 -281 422 -531 373z m323 -195 c13 -13 16 -45 16 -190 l0 -174 -250 0 -250 0 0 174 c0 145 3 177 16 190 23 24 445 24 468 0z m-288 -409 c9 -8 33 -15 53 -15 22 0 44 6 51 15 10 12 38 15 136 15 l124 0 0 -27 c0 -14 -7 -35 -17 -45 -15 -17 -37 -18 -291 -18 -303 0 -312 2 -312 62 l0 28 121 0 c94 0 124 -3 135 -15z"/>
<path d="M540 630 l0 -120 190 0 190 0 0 120 0 120 -190 0 -190 0 0 -120z"/>
</g>
</svg>