<svg xmlns="http://www.w3.org/2000/svg" version="1.0" preserveAspectRatio="xMidYMid meet" viewBox="25.25 14.25 89.51 89.52">
<metadata>
Created by potrace 1.10, written by Peter Selinger 2001-2011
</metadata>
<g transform="translate(0.000000,110.000000) scale(0.100000,-0.100000)" fill="#000000" stroke="none">
<path d="M611 949 c-227 -44 -391 -278 -353 -505 32 -196 180 -344 376 -376 289 -48 556 219 508 508 -42 255 -281 422 -531 373z m121 -211 c2 -24 9 -34 23 -36 30 -5 65 -24 65 -36 0 -5 -9 -20 -21 -32 -17 -19 -26 -21 -52 -13 -44 13 -70 11 -92 -5 -29 -21 -6 -41 75 -65 80 -24 110 -56 110 -116 0 -29 -8 -45 -34 -71 -19 -19 -43 -34 -55 -34 -17 0 -21 -6 -21 -30 0 -27 -3 -30 -30 -30 -27 0 -30 3 -30 30 0 20 -5 30 -15 30 -20 0 -75 28 -75 38 0 5 6 17 14 27 12 16 27 20 88 20 67 0 73 2 76 22 3 18 -5 24 -55 38 -32 9 -70 23 -85 31 -31 16 -58 61 -58 96 0 38 35 85 74 98 27 9 36 17 36 34 0 29 8 36 36 36 18 0 23 -6 26 -32z"/>
</g>
</svg>