<svg xmlns="http://www.w3.org/2000/svg" version="1.0" preserveAspectRatio="xMidYMid meet" viewBox="27.25 21.25 89.51 89.52">
<metadata>
Created by potrace 1.10, written by Peter Selinger 2001-2011
</metadata>
<g transform="translate(0.000000,119.000000) scale(0.100000,-0.100000)" fill="#000000" stroke="none">
<path d="M631 969 c-227 -44 -391 -278 -353 -505 32 -196 180 -344 376 -376 289 -48 556 219 508 508 -42 255 -281 422 -531 373z m151 -196 c10 -9 18 -25 18 -37 0 -26 98 -126 117 -119 15 6 53 -23 53 -41 0 -14 -131 -146 -146 -146 -18 0 -47 38 -41 54 3 8 -3 22 -14 32 -19 17 -21 16 -54 -16 -27 -26 -33 -39 -28 -58 5 -20 -5 -35 -58 -88 -35 -36 -72 -64 -83 -64 -24 0 -76 48 -76 70 0 8 31 46 69 84 52 51 73 67 88 62 13 -4 29 4 53 29 27 28 31 37 21 49 -7 8 -24 16 -38 18 -14 2 -33 13 -41 26 -14 22 -12 25 55 92 38 39 73 70 78 70 5 0 17 -7 27 -17z"/>
</g>
</svg>