<svg xmlns="http://www.w3.org/2000/svg" version="1.0" preserveAspectRatio="xMidYMid meet" viewBox="28.25 20.25 89.51 89.52">
<metadata>
Created by potrace 1.10, written by Peter Selinger 2001-2011
</metadata>
<g transform="translate(0.000000,119.000000) scale(0.100000,-0.100000)" fill="#000000" stroke="none">
<path d="M641 979 c-227 -44 -391 -278 -353 -505 32 -196 180 -344 376 -376 289 -48 556 219 508 508 -42 255 -281 422 -531 373z m-101 -399 l5 -155 218 -3 217 -2 0 -30 0 -30 -247 2 -248 3 -3 175 c-1 96 0 180 3 188 3 7 15 12 27 10 22 -3 23 -7 28 -158z m394 124 c12 -5 16 -21 16 -75 0 -77 -15 -96 -50 -64 -19 17 -22 16 -74 -33 -30 -29 -58 -52 -63 -52 -4 0 -26 19 -50 42 l-43 42 -23 -22 c-28 -27 -53 -28 -66 -4 -8 15 -2 27 32 60 24 23 49 42 57 42 8 0 31 -17 52 -37 l38 -37 35 34 35 34 -23 24 c-22 23 -22 24 -3 38 20 14 101 19 130 8z"/>
</g>
</svg>