<?xml version="1.0" standalone="no"?>
<!DOCTYPE svg PUBLIC "-//W3C//DTD SVG 20010904//EN" "http://www.w3.org/TR/2001/REC-SVG-20010904/DTD/svg10.dtd">
<svg version="1.0" xmlns="http://www.w3.org/2000/svg" width="100pt" height="100pt" viewBox="0 0 238.000000 212.000000" preserveAspectRatio="xMidYMid meet">
  <metadata>
Created by potrace 1.10, written by Peter Selinger 2001-2011
</metadata>
  <g transform="translate(0.000000,212.000000) scale(0.100000,-0.100000)" fill="#000000" stroke="none">
    <path d="M1175 1920 c-94 -14 -247 -68 -324 -113 -306 -180 -484 -532 -442
-873 52 -424 365 -739 789 -795 119 -16 257 -1 387 42 434 144 692 601 590
1046 -64 276 -264 519 -516 625 -149 62 -342 89 -484 68z m11 -589 c22 -10 57
-33 77 -51 l37 -32 45 36 c58 48 103 66 165 66 133 0 231 -105 217 -234 -3
-34 -15 -68 -29 -90 -24 -35 -384 -371 -398 -371 -14 0 -374 336 -398 371 -29
43 -39 126 -22 178 16 50 66 105 115 127 52 24 138 24 191 0z" />
  </g>
</svg>