<?xml version="1.0" standalone="no"?>
<!DOCTYPE svg PUBLIC "-//W3C//DTD SVG 20010904//EN" "http://www.w3.org/TR/2001/REC-SVG-20010904/DTD/svg10.dtd">
<svg version="1.0" xmlns="http://www.w3.org/2000/svg" width="100pt" height="100pt" viewBox="0 0 258.000000 210.000000" preserveAspectRatio="xMidYMid meet">
  <metadata>
Created by potrace 1.10, written by Peter Selinger 2001-2011
</metadata>
  <g transform="translate(0.000000,210.000000) scale(0.100000,-0.100000)" fill="#000000" stroke="none">
    <path d="M1235 2000 c-94 -14 -247 -68 -324 -113 -306 -180 -484 -532 -442
-873 52 -426 369 -743 795 -795 122 -15 251 -1 382 42 433 144 691 602 589
1046 -64 276 -264 519 -516 625 -149 62 -342 89 -484 68z m515 -918 l-50 -3
-2 -222 -3 -222 -337 -3 -338 -2 0 225 0 225 -50 0 c-27 0 -50 3 -50 7 0 4 98
106 217 225 l218 218 223 -222 222 -223 -50 -3z" />
    <path d="M1248 1224 l-108 -76 0 -199 0 -199 80 0 79 0 3 83 3 82 55 0 55 0 3
-82 3 -83 79 0 80 0 0 199 0 198 -109 77 c-60 42 -111 76 -113 76 -1 0 -51
-34 -110 -76z" />
  </g>
</svg>