<svg xmlns="http://www.w3.org/2000/svg" version="1.0" preserveAspectRatio="xMidYMid meet" viewBox="36.25 27.25 89.51 89.52">
<metadata>
Created by potrace 1.10, written by Peter Selinger 2001-2011
</metadata>
<g transform="translate(0.000000,126.000000) scale(0.100000,-0.100000)" fill="#000000" stroke="none">
<path d="M721 979 c-227 -44 -391 -278 -353 -505 32 -196 180 -344 376 -376 289 -48 556 219 508 508 -42 255 -281 422 -531 373z m154 -249 l50 -40 3 41 c3 40 4 40 40 37 l37 -3 3 -74 c3 -78 2 -76 71 -127 13 -10 13 -16 3 -38 -6 -14 -16 -26 -21 -26 -5 0 -61 43 -124 95 -64 52 -120 95 -126 95 -8 0 -106 -78 -223 -178 -16 -13 -20 -13 -38 3 -11 10 -20 22 -20 26 0 8 200 178 250 212 34 23 38 22 95 -23z m53 -164 l72 -60 0 -88 0 -88 -70 0 -70 0 0 60 0 60 -45 0 -44 0 -3 -57 -3 -58 -70 0 -70 0 -2 85 -3 85 96 78 c94 76 96 77 118 60 12 -10 54 -45 94 -77z"/>
</g>
</svg>