<svg xmlns="http://www.w3.org/2000/svg" version="1.0" preserveAspectRatio="xMidYMid meet" viewBox="20.25 24.25 89.51 89.52">
<metadata>
Created by potrace 1.10, written by Peter Selinger 2001-2011
</metadata>
<g transform="translate(0.000000,124.000000) scale(0.100000,-0.100000)" fill="#000000" stroke="none">
<path d="M561 989 c-227 -44 -391 -278 -353 -505 32 -196 180 -344 376 -376 289 -48 556 219 508 508 -42 255 -281 422 -531 373z m146 -190 c34 -13 80 -55 99 -91 19 -37 18 -107 -4 -144 -63 -114 -78 -134 -99 -134 -13 0 -23 5 -23 10 0 15 24 60 60 113 42 63 41 115 -2 162 -78 85 -208 34 -208 -81 0 -27 11 -55 39 -98 21 -34 42 -71 46 -83 5 -20 3 -23 -20 -23 -15 0 -28 7 -32 18 -4 9 -24 44 -45 76 -31 48 -38 68 -38 109 0 121 118 208 227 166z m-42 -79 c3 -5 -10 -17 -29 -27 -22 -10 -39 -27 -45 -46 -12 -34 -37 -31 -33 4 6 47 88 100 107 69z m65 -343 c0 -45 -27 -67 -80 -67 -53 0 -80 22 -80 67 0 22 3 23 80 23 77 0 80 -1 80 -23z"/>
</g>
</svg>