<svg xmlns="http://www.w3.org/2000/svg" version="1.0" preserveAspectRatio="xMidYMid meet" viewBox="29.25 19.25 89.51 89.52">
<metadata>
Created by potrace 1.10, written by Peter Selinger 2001-2011
</metadata>
<g transform="translate(0.000000,121.000000) scale(0.100000,-0.100000)" fill="#000000" stroke="none">
<path d="M651 1009 c-227 -44 -391 -278 -353 -505 32 -196 180 -344 376 -376 289 -48 556 219 508 508 -42 255 -281 422 -531 373z m149 -197 c76 -42 89 -135 25 -199 -29 -29 -40 -33 -84 -33 -41 0 -56 5 -81 28 -110 98 10 273 140 204z m106 -292 c38 -28 54 -63 54 -115 0 -28 -5 -56 -12 -63 -17 -17 -399 -17 -416 0 -16 16 -15 81 2 122 14 34 59 76 82 76 21 0 17 -68 -5 -97 -25 -30 -15 -64 22 -77 52 -19 93 58 47 86 -14 9 -20 24 -20 49 l0 36 75 -1 c86 -1 95 -12 44 -56 -27 -22 -32 -34 -33 -71 -1 -38 2 -44 22 -47 15 -2 22 2 22 12 0 9 -4 16 -10 16 -16 0 -12 42 7 62 22 24 49 23 67 -4 20 -28 20 -58 1 -58 -8 0 -15 -4 -15 -9 0 -17 19 -22 41 -10 31 16 20 75 -21 110 -28 24 -38 48 -24 61 7 8 45 -4 70 -22z m-238 -103 c4 -22 -27 -35 -38 -16 -10 15 7 42 24 36 6 -2 12 -11 14 -20z"/>
</g>
</svg>