<?xml version="1.0" standalone="no"?>
<!DOCTYPE svg PUBLIC "-//W3C//DTD SVG 20010904//EN" "http://www.w3.org/TR/2001/REC-SVG-20010904/DTD/svg10.dtd">
<svg version="1.0" xmlns="http://www.w3.org/2000/svg" width="100pt" height="100pt" viewBox="0 0 244.000000 212.000000" preserveAspectRatio="xMidYMid meet">
  <metadata>
Created by potrace 1.10, written by Peter Selinger 2001-2011
</metadata>
  <g transform="translate(0.000000,212.000000) scale(0.100000,-0.100000)" fill="#000000" stroke="none">
    <path d="M1155 1919 c-92 -13 -245 -66 -324 -112 -306 -180 -484 -532 -442
-873 52 -426 369 -743 795 -795 175 -22 380 21 546 114 103 58 269 224 327
327 56 100 100 235 114 353 22 176 -21 380 -114 547 -58 103 -224 269 -327
327 -175 98 -384 139 -575 112z m607 -498 l33 -29 3 -163 c3 -102 0 -178 -7
-201 -15 -49 -53 -78 -102 -78 l-39 0 0 -77 0 -78 -78 78 -77 77 -178 0 -177
0 0 200 c0 216 7 253 51 284 20 14 59 16 281 16 l258 0 32 -29z m-672 -376 l0
-155 180 0 180 0 0 -45 c0 -56 -20 -107 -51 -129 -19 -13 -50 -16 -164 -16
l-140 0 -77 -77 -78 -78 0 78 0 77 -38 0 c-21 0 -48 7 -61 16 -42 30 -51 71
-51 234 0 234 12 250 187 250 l113 0 0 -155z" />
  </g>
</svg>