<?xml version="1.0" standalone="no"?>
<!DOCTYPE svg PUBLIC "-//W3C//DTD SVG 20010904//EN" "http://www.w3.org/TR/2001/REC-SVG-20010904/DTD/svg10.dtd">
<svg version="1.0" xmlns="http://www.w3.org/2000/svg" width="100pt" height="100pt" viewBox="0 0 268.000000 220.000000" preserveAspectRatio="xMidYMid meet">
  <metadata>
Created by potrace 1.10, written by Peter Selinger 2001-2011
</metadata>
  <g transform="translate(0.000000,220.000000) scale(0.100000,-0.100000)" fill="#000000" stroke="none">
    <path d="M1235 2000 c-94 -14 -247 -68 -324 -113 -247 -145 -407 -391 -442
-681 -51 -408 209 -813 605 -945 193 -64 379 -64 572 0 434 144 691 601 589
1046 -64 276 -264 519 -516 625 -149 62 -342 89 -484 68z m625 -920 l0 -390
-489 0 c-270 0 -492 3 -494 8 -7 10 231 306 250 310 8 2 37 -15 64 -38 38 -32
53 -39 63 -31 7 6 49 65 92 131 44 66 85 120 92 120 8 0 44 -27 81 -60 37 -33
70 -60 74 -60 3 0 60 90 127 200 67 110 126 200 131 200 5 0 9 -163 9 -390z" />
  </g>
</svg>