<svg xmlns="http://www.w3.org/2000/svg" version="1.0" preserveAspectRatio="xMidYMid meet" viewBox="30.25 23.25 89.51 89.52">
<metadata>
Created by potrace 1.10, written by Peter Selinger 2001-2011
</metadata>
<g transform="translate(0.000000,122.000000) scale(0.100000,-0.100000)" fill="#000000" stroke="none">
<path d="M661 979 c-227 -44 -391 -278 -353 -505 32 -196 180 -344 376 -376 289 -48 556 219 508 508 -42 255 -281 422 -531 373z m52 -251 c23 -28 23 -117 -1 -166 -29 -58 -18 -80 63 -122 l70 -37 3 -46 3 -47 -176 0 -176 0 3 57 c3 57 4 58 46 82 60 32 69 57 43 111 -21 43 -28 120 -15 155 9 23 63 45 94 38 14 -3 33 -14 43 -25z m181 -54 c20 -20 21 -83 1 -130 -18 -44 -12 -58 33 -80 63 -28 72 -42 72 -101 l0 -53 -55 0 -55 0 0 44 c0 61 -6 73 -50 97 -32 18 -37 25 -31 43 5 12 3 33 -5 51 -18 42 -17 110 2 129 8 9 28 16 44 16 16 0 36 -7 44 -16z"/>
</g>
</svg>