<svg xmlns="http://www.w3.org/2000/svg" version="1.0" preserveAspectRatio="xMidYMid meet" viewBox="45.23 20.25 89.54 89.52">
<metadata>
Created by potrace 1.10, written by Peter Selinger 2001-2011
</metadata>
<g transform="translate(0.000000,119.000000) scale(0.100000,-0.100000)" fill="#000000" stroke="none">
<path d="M811 979 c-226 -44 -389 -274 -354 -499 31 -200 179 -349 377 -382 289 -48 556 219 508 508 -42 255 -281 422 -531 373z m114 -185 c22 -9 46 -59 38 -81 -12 -34 -36 -53 -68 -53 -53 0 -85 52 -60 100 19 37 50 49 90 34z m-130 -104 c46 -47 52 -50 99 -50 47 0 54 3 101 50 36 36 56 49 68 44 31 -11 19 -48 -33 -99 l-49 -49 -3 -140 -3 -141 -29 -3 c-37 -5 -45 9 -48 83 l-2 60 -5 -70 -6 -70 -35 0 -35 0 -3 141 -3 140 -49 49 c-59 58 -66 97 -20 104 3 1 28 -21 55 -49z"/>
</g>
</svg>