<svg xmlns="http://www.w3.org/2000/svg" version="1.0" preserveAspectRatio="xMidYMid meet" viewBox="18.25 13.25 89.51 89.52">
<metadata>
Created by potrace 1.10, written by Peter Selinger 2001-2011
</metadata>
<g transform="translate(0.000000,113.000000) scale(0.100000,-0.100000)" fill="#000000" stroke="none">
<path d="M541 989 c-227 -44 -391 -278 -353 -505 32 -196 180 -344 376 -376 289 -48 556 219 508 508 -42 255 -280 422 -531 373z m205 -275 l105 -27 -3 -30 c-3 -30 -5 -31 -112 -58 l-109 -27 -76 19 c-165 43 -153 37 -149 67 3 25 10 29 103 54 55 14 108 27 118 27 10 1 65 -11 123 -25z m-219 -170 l96 -26 103 26 c57 14 108 26 114 26 5 0 10 -13 10 -28 0 -27 -2 -28 -112 -55 l-113 -27 -110 28 c-104 27 -110 30 -113 55 -4 34 4 34 125 1z m-2 -110 l105 -26 105 26 c57 14 107 26 110 26 3 0 5 -13 5 -29 0 -29 -1 -29 -112 -56 l-113 -27 -110 28 c-104 28 -110 30 -113 57 -2 15 2 27 8 27 6 0 58 -12 115 -26z"/>
</g>
</svg>