<?xml version="1.0" standalone="no"?>
<!DOCTYPE svg PUBLIC "-//W3C//DTD SVG 20010904//EN" "http://www.w3.org/TR/2001/REC-SVG-20010904/DTD/svg10.dtd">
<svg version="1.0" xmlns="http://www.w3.org/2000/svg" width="100pt" height="100pt" viewBox="0 0 294.000000 280.000000" preserveAspectRatio="xMidYMid meet">
  <metadata>
Created by potrace 1.10, written by Peter Selinger 2001-2011
</metadata>
  <g transform="translate(0.000000,280.000000) scale(0.100000,-0.100000)" fill="#000000" stroke="none">
    <path d="M1295 2179 c-92 -13 -245 -66 -324 -112 -306 -180 -484 -532 -442
-873 52 -426 369 -743 795 -795 175 -22 380 21 546 114 103 58 269 224 327
327 56 100 100 235 114 353 22 176 -21 380 -114 547 -58 103 -224 269 -327
327 -175 98 -384 139 -575 112z m187 -646 l56 -158 156 -3 c86 -1 156 -6 156
-10 0 -4 -56 -50 -125 -101 -91 -67 -124 -98 -121 -110 13 -43 86 -317 86
-324 0 -4 -59 37 -131 93 -72 55 -135 100 -139 100 -4 0 -67 -45 -139 -100
-72 -56 -131 -97 -131 -93 0 7 73 281 86 324 3 12 -30 43 -121 110 -69 51
-125 97 -125 101 0 4 70 9 156 10 l156 3 56 158 c31 86 59 157 62 157 3 0 31
-71 62 -157z" />
  </g>
</svg>