<svg xmlns="http://www.w3.org/2000/svg" version="1.0" preserveAspectRatio="xMidYMid meet" viewBox="41.25 16.25 89.51 89.52">
<metadata>
Created by potrace 1.10, written by Peter Selinger 2001-2011
</metadata>
<g transform="translate(0.000000,118.000000) scale(0.100000,-0.100000)" fill="#000000" stroke="none">
<path d="M771 1009 c-227 -44 -391 -278 -353 -505 32 -196 180 -344 376 -376 289 -48 556 219 508 508 -42 255 -281 422 -531 373z m130 -349 l12 -39 81 -3 81 -3 -62 -45 c-35 -25 -63 -51 -63 -58 0 -7 9 -45 20 -84 11 -39 18 -73 16 -75 -1 -2 -32 19 -67 45 l-64 49 -64 -49 c-35 -26 -66 -47 -67 -45 -2 2 5 36 16 75 11 39 20 77 20 84 0 7 -28 33 -63 58 l-62 45 80 3 80 3 29 82 29 82 18 -43 c10 -23 24 -60 30 -82z"/>
<path d="M842 628 c-12 -48 -13 -48 -55 -48 l-42 0 33 -26 c34 -27 36 -37 15 -91 -6 -15 0 -13 28 8 l35 27 29 -24 c16 -13 31 -22 32 -20 2 1 -2 18 -9 36 -11 32 -10 35 23 62 l33 28 -41 0 c-41 0 -42 1 -55 48 l-14 47 -12 -47z"/>
</g>
</svg>