<?xml version="1.0" standalone="no"?>
<!DOCTYPE svg PUBLIC "-//W3C//DTD SVG 20010904//EN" "http://www.w3.org/TR/2001/REC-SVG-20010904/DTD/svg10.dtd">
<svg version="1.0" xmlns="http://www.w3.org/2000/svg" width="100pt" height="100pt" viewBox="0 0 242.000000 206.000000" preserveAspectRatio="xMidYMid meet">
  <metadata>
Created by potrace 1.10, written by Peter Selinger 2001-2011
</metadata>
  <g transform="translate(0.000000,206.000000) scale(0.100000,-0.100000)" fill="#000000" stroke="none">
    <path d="M1169 1954 c-398 -72 -691 -383 -740 -788 -36 -286 84 -584 313 -781
179 -155 445 -236 674 -207 427 54 743 370 795 796 49 397 -199 798 -579 936
-158 57 -311 72 -463 44z m409 -476 c5 -7 15 -32 22 -54 15 -52 0 -103 -55
-189 -20 -32 -33 -61 -28 -65 4 -4 39 -12 77 -19 38 -7 82 -19 99 -27 29 -16
30 -17 24 -77 -9 -88 -72 -311 -110 -387 -32 -64 -32 -65 -77 -68 -102 -8
-328 45 -384 89 l-26 20 0 188 c0 219 -5 207 112 292 40 29 94 68 120 88 27
19 82 77 124 128 42 51 80 93 84 93 4 0 12 -6 18 -12z m-508 -318 c0 -6 -10
-25 -22 -41 -22 -29 -23 -39 -23 -229 0 -190 1 -200 23 -229 12 -16 22 -34 22
-40 0 -13 -64 3 -94 25 -51 38 -58 68 -54 259 l3 174 30 32 c42 44 115 75 115
49z" />
  </g>
</svg>